<mxfile host="app.diagrams.net" modified="2024-04-02T14:32:39.918Z" agent="Mozilla/5.0 (Windows NT 10.0; Win64; x64) AppleWebKit/537.36 (KHTML, like Gecko) Chrome/122.0.0.0 Safari/537.36" version="23.0.1" etag="Vd0YwtG3Bg7_iUHgo_xy" type="github">
  <diagram name="Sida-1" id="kljaki5vOFe0TkXhAlIk">
    <mxGraphModel>
      <root>
        <mxCell id="0" />
        <mxCell id="1" parent="0" />
      </root>
    </mxGraphModel>
  </diagram>
</mxfile>
